<?xml version="1.0" encoding="UTF-8" standalone="no"?>
<!-- Created with Inkscape (http://www.inkscape.org/) -->

<svg
   xmlns:dc="http://purl.org/dc/elements/1.1/"
   xmlns:cc="http://creativecommons.org/ns#"
   xmlns:rdf="http://www.w3.org/1999/02/22-rdf-syntax-ns#"
   xmlns:svg="http://www.w3.org/2000/svg"
   xmlns="http://www.w3.org/2000/svg"
   xmlns:sodipodi="http://sodipodi.sourceforge.net/DTD/sodipodi-0.dtd"
   xmlns:inkscape="http://www.inkscape.org/namespaces/inkscape"
   version="1.1"
   id="svg3713"
   xml:space="preserve"
   width="816"
   height="1056"
   viewBox="0 0 816 1056"
   sodipodi:docname="Fungal Kingdom.svg"
   inkscape:version="0.92.4 (5da689c313, 2019-01-14)"
   inkscape:export-filename="D:\Carlos_spores\SporeSizeFungalKingdom\Fungal Kingdom.png"
   inkscape:export-xdpi="96"
   inkscape:export-ydpi="96"><metadata
     id="metadata3719"><rdf:RDF><cc:Work
         rdf:about=""><dc:format>image/svg+xml</dc:format><dc:type
           rdf:resource="http://purl.org/dc/dcmitype/StillImage" /><dc:title></dc:title></cc:Work></rdf:RDF></metadata><defs
     id="defs3717"><clipPath
       clipPathUnits="userSpaceOnUse"
       id="clipPath3733"><path
         d="M 0,136.84 H 518.32 V 655.16 H 0 Z"
         id="path3731"
         inkscape:connector-curvature="0" /></clipPath></defs><sodipodi:namedview
     pagecolor="#ffffff"
     bordercolor="#666666"
     borderopacity="1"
     objecttolerance="10"
     gridtolerance="10"
     guidetolerance="10"
     inkscape:pageopacity="0"
     inkscape:pageshadow="2"
     inkscape:window-width="2560"
     inkscape:window-height="1377"
     id="namedview3715"
     showgrid="false"
     inkscape:zoom="1.1439394"
     inkscape:cx="276.87417"
     inkscape:cy="528"
     inkscape:window-x="-8"
     inkscape:window-y="-8"
     inkscape:window-maximized="1"
     inkscape:current-layer="g3721" /><g
     id="g3721"
     inkscape:groupmode="layer"
     inkscape:label="Fungal Kingdom"
     transform="matrix(1.3333333,0,0,-1.3333333,0,1056)"><g
       id="g3723" /><g
       id="g3725" /><g
       id="g3727"><g
         id="g3729"
         clip-path="url(#clipPath3733)"><path
           d="m 266.03,504.63 0.45,7.16 0.45,7.17 0.45,7.16 0.46,7.16 0.45,7.16 0.45,7.17 0.45,7.16 0.46,7.16 0.45,7.16 0.45,7.17 0.45,7.16 0.46,7.16 0.45,7.16 -12.75,0.41 v -7.18 -7.18 -7.17 -7.18 -7.18 -7.18 -7.17 -7.18 -7.18 -7.17 -7.18 -7.18 -7.17 z"
           style="fill:#66a61e;fill-opacity:1;fill-rule:nonzero;stroke:#ffffff;stroke-width:1.07000005;stroke-linecap:round;stroke-linejoin:round;stroke-miterlimit:10;stroke-dasharray:none;stroke-opacity:1"
           id="path3735"
           inkscape:connector-curvature="0" /><path
           d="m 267.45,504.53 0.55,7.16 0.54,7.15 0.55,7.16 0.55,7.15 0.54,7.16 0.55,7.16 0.55,7.15 0.54,7.16 0.55,7.15 0.55,7.16 0.54,7.16 0.55,7.15 0.55,7.16 -2.65,0.18 -0.45,-7.16 -0.46,-7.16 -0.45,-7.16 -0.45,-7.17 -0.45,-7.16 -0.46,-7.16 -0.45,-7.16 -0.45,-7.17 -0.45,-7.16 -0.46,-7.16 -0.45,-7.16 -0.45,-7.17 -0.45,-7.16 z"
           style="fill:#e7298a;fill-opacity:1;fill-rule:nonzero;stroke:#ffffff;stroke-width:1.07000005;stroke-linecap:round;stroke-linejoin:round;stroke-miterlimit:10;stroke-dasharray:none;stroke-opacity:1"
           id="path3737"
           inkscape:connector-curvature="0" /><path
           d="m 273.55,503.89 0.95,7.12 0.95,7.11 0.95,7.11 0.95,7.12 0.95,7.11 0.94,7.11 0.95,7.12 0.95,7.11 0.95,7.12 0.95,7.11 0.95,7.11 0.95,7.12 0.95,7.11 -11.33,1.19 -0.55,-7.16 -0.55,-7.15 -0.54,-7.16 -0.55,-7.16 -0.55,-7.15 -0.54,-7.16 -0.55,-7.15 -0.55,-7.16 -0.54,-7.16 -0.55,-7.15 -0.55,-7.16 -0.54,-7.15 -0.55,-7.16 z"
           style="fill:#7570b3;fill-opacity:1;fill-rule:nonzero;stroke:#ffffff;stroke-width:1.07000005;stroke-linecap:round;stroke-linejoin:round;stroke-miterlimit:10;stroke-dasharray:none;stroke-opacity:1"
           id="path3739"
           inkscape:connector-curvature="0" /><path
           d="m 333.45,316.44 4.9,-5.24 4.89,-5.25 4.9,-5.24 4.9,-5.25 4.9,-5.24 4.9,-5.25 4.89,-5.24 4.9,-5.25 4.9,-5.25 4.9,-5.24 4.9,-5.25 4.89,-5.24 4.9,-5.25 5.05,4.88 4.88,5.06 4.69,5.21 4.51,5.38 4.33,5.54 4.13,5.67 3.93,5.82 3.72,5.96 3.52,6.07 3.3,6.2 3.08,6.31 2.87,6.41 2.64,6.5 2.41,6.6 2.18,6.67 1.95,6.75 1.71,6.81 1.48,6.86 1.24,6.91 0.99,6.95 0.75,6.98 0.52,7.01 0.26,7.01 0.03,7.02 -0.22,7.02 -0.47,7.01 -0.71,6.98 -0.94,6.96 -1.19,6.92 -1.43,6.88 -1.67,6.82 -1.91,6.75 -2.13,6.69 -2.37,6.61 -2.6,6.53 -2.82,6.43 -3.04,6.32 -3.26,6.22 -3.48,6.1 -3.68,5.98 -3.89,5.85 -4.09,5.7 -4.29,5.56 -4.47,5.41 -4.67,5.25 -4.84,5.09 -5.01,4.91 -5.19,4.74 -5.34,4.55 -5.5,4.37 -5.65,4.17 -5.79,3.97 -5.92,3.77 -6.05,3.57 -6.17,3.35 -6.28,3.13 -6.39,2.91 -6.49,2.69 -6.57,2.47 -6.66,2.23 -6.73,2 -6.8,1.76 -6.85,1.53 -6.9,1.29 -6.94,1.05 -0.95,-7.11 -0.95,-7.12 -0.95,-7.11 -0.95,-7.11 -0.95,-7.12 -0.95,-7.11 -0.95,-7.12 -0.94,-7.11 -0.95,-7.11 -0.95,-7.12 -0.95,-7.11 -0.95,-7.11 -0.95,-7.12 6.93,-1.15 6.83,-1.6 6.72,-2.03 6.58,-2.46 6.4,-2.88 6.2,-3.29 5.98,-3.68 5.73,-4.06 5.45,-4.42 5.16,-4.76 4.84,-5.09 4.51,-5.38 4.14,-5.67 3.78,-5.92 3.38,-6.15 2.98,-6.36 2.56,-6.53 2.14,-6.69 1.7,-6.81 1.26,-6.91 0.81,-6.97 0.36,-7.01 -0.09,-7.02 -0.55,-7 -1,-6.95 -1.44,-6.87 -1.88,-6.77 -2.31,-6.63 -2.74,-6.46 -3.15,-6.28 -3.54,-6.06 -3.93,-5.81 -4.29,-5.56 -4.65,-5.26 z"
           style="fill:#d95f02;fill-opacity:1;fill-rule:nonzero;stroke:#ffffff;stroke-width:1.07000005;stroke-linecap:round;stroke-linejoin:round;stroke-miterlimit:10;stroke-dasharray:none;stroke-opacity:1"
           id="path3741"
           inkscape:connector-curvature="0" /><path
           d="m 259.16,504.85 v 7.17 7.18 7.18 7.17 7.18 7.18 7.17 7.18 7.18 7.18 7.17 7.18 7.18 l -7.02,-0.13 -7.02,-0.36 -7,-0.61 -6.97,-0.86 -6.94,-1.09 -6.9,-1.33 -6.85,-1.58 -6.79,-1.81 -6.72,-2.04 -6.64,-2.28 -6.57,-2.51 -6.47,-2.73 -6.37,-2.96 -6.27,-3.18 -6.15,-3.39 -6.03,-3.6 -5.9,-3.82 -5.77,-4.01 -5.62,-4.21 -5.47,-4.41 -5.32,-4.59 -5.15,-4.78 -4.99,-4.95 -4.81,-5.12 -4.62,-5.28 -4.45,-5.45 -4.25,-5.59 -4.05,-5.74 -3.85,-5.88 -3.65,-6 -3.43,-6.13 -3.22,-6.24 -3,-6.36 -2.78,-6.45 -2.55,-6.55 -2.32,-6.63 -2.09,-6.7 -1.86,-6.78 -1.62,-6.84 -1.38,-6.88 -1.14,-6.94 -0.9,-6.96 -0.66,-7 -0.41,-7.01 -0.17,-7.03 0.07,-7.02 0.32,-7.02 0.57,-7 0.8,-6.98 1.05,-6.95 1.29,-6.91 1.52,-6.85 1.77,-6.8 2,-6.74 2.23,-6.66 2.47,-6.58 2.69,-6.49 2.91,-6.39 3.13,-6.29 3.36,-6.17 3.56,-6.06 3.77,-5.93 3.98,-5.79 4.17,-5.65 4.37,-5.5 4.56,-5.35 4.74,-5.18 4.91,-5.02 5.09,-4.85 5.26,-4.66 5.41,-4.48 5.56,-4.29 5.72,-4.09 5.85,-3.89 5.98,-3.69 6.1,-3.47 6.23,-3.26 6.33,-3.05 6.43,-2.82 6.53,-2.59 6.61,-2.37 6.7,-2.14 6.76,-1.9 6.83,-1.66 6.88,-1.43 6.92,-1.19 6.96,-0.95 6.99,-0.7 7.01,-0.46 7.02,-0.22 7.03,0.03 7.02,0.27 7.01,0.52 6.98,0.76 6.95,1 6.92,1.24 6.87,1.48 6.81,1.72 6.75,1.95 6.67,2.19 6.6,2.42 6.51,2.65 6.41,2.87 6.31,3.09 6.2,3.31 6.07,3.52 5.96,3.73 5.82,3.94 5.67,4.14 5.54,4.33 5.37,4.52 5.22,4.7 -4.9,5.25 -4.89,5.24 -4.9,5.25 -4.9,5.24 -4.9,5.25 -4.9,5.25 -4.89,5.24 -4.9,5.25 -4.9,5.24 -4.9,5.25 -4.9,5.24 -4.89,5.25 -4.9,5.24 -5.32,-4.65 -5.6,-4.29 -5.87,-3.92 -6.12,-3.54 -6.32,-3.13 -6.52,-2.71 -6.68,-2.28 -6.82,-1.85 -6.92,-1.4 -7,-0.95 -7.04,-0.49 -7.06,-0.04 -7.05,0.43 -7,0.87 -6.94,1.33 -6.83,1.78 -6.71,2.22 -6.54,2.65 -6.36,3.06 -6.15,3.47 -5.91,3.86 -5.65,4.24 -5.36,4.6 -5.05,4.93 -4.72,5.25 -4.37,5.55 -4.01,5.81 -3.61,6.07 -3.22,6.28 -2.8,6.48 -2.38,6.65 -1.93,6.79 -1.5,6.9 -1.04,6.99 -0.59,7.03 -0.14,7.06 0.33,7.05 0.78,7.02 1.24,6.95 1.68,6.86 2.13,6.73 2.55,6.58 2.98,6.41 3.39,6.19 3.78,5.96 4.16,5.71 4.52,5.42 4.86,5.12 5.19,4.79 5.48,4.45 5.76,4.08 6.02,3.7 6.24,3.3 6.44,2.89 6.62,2.47 6.76,2.03 6.88,1.59 6.97,1.14 7.02,0.69 z"
           style="fill:#1b9e77;fill-opacity:1;fill-rule:nonzero;stroke:#ffffff;stroke-width:1.07000005;stroke-linecap:round;stroke-linejoin:round;stroke-miterlimit:10;stroke-dasharray:none;stroke-opacity:1"
           id="path3743"
           inkscape:connector-curvature="0" /></g></g><g
       id="g3745" /><g
       id="g3747" /><g
       id="g3749" /><g
       id="g3751" /><g
       id="g3753" /><g
       id="g3755" /><g
       id="g3757" /><g
       id="g3759" /><g
       id="g3761" /><g
       id="g3763" /><g
       id="g3765" /><g
       id="g3767" /><g
       id="g3769" /><g
       id="g3771" /><g
       id="g3773" /><g
       id="g3775" /><g
       id="g3777" /><g
       id="g3779" /><g
       id="g3781" /><g
       id="g3783" /><g
       id="g3785" /><g
       id="g3787" /><g
       id="g3789" /><g
       id="g3791" /><g
       id="g3793" /><g
       id="g3795" /><g
       id="g3797" /><g
       id="g3799" /><g
       id="g3801" /><g
       id="g3803" /><g
       id="g3805" /><g
       id="g3807" /><g
       id="g3809" /><g
       id="g3811" /><g
       id="g3813" /><g
       id="g3815" /><g
       id="g3817" /><g
       id="g3819" /><g
       id="g3821" /><g
       id="g3823" /><g
       id="g3825" /><g
       id="g3827" /><g
       id="g3829" /><g
       id="g3837" /><g
       id="g3839" /><g
       id="g3841" /><g
       id="g3843" /><g
       id="g3849" /><g
       id="g3851" /><g
       id="g3853" /><g
       id="g3859" /><g
       id="g3861" /><g
       id="g3863" /><g
       id="g3869" /><g
       id="g3871" /><g
       id="g3873" /><g
       id="g3879" /><g
       id="g3881" /><g
       id="g3883" /><g
       id="g3889" /><g
       id="g3891" /><g
       id="g3893" /><g
       id="g3901" /><g
       id="g3903" /><g
       id="g3905" /><g
       id="g3907" /><g
       id="g3915" /><g
       id="g3917" /><g
       id="g3919" /><g
       id="g3921" /><g
       id="g3929" /><g
       id="g3931" /><g
       id="g3933" /><g
       id="g3935" /><g
       id="g3943" /><g
       id="g3945" /><g
       id="g3947" /><g
       id="g3949" /><g
       id="g3957" /><g
       id="g3959" /><g
       id="g3961" /><g
       id="g3963" /><g
       id="g3965" /><g
       id="g3967" /><g
       id="g3969" /><g
       id="g3971" /><g
       id="g3973" /><g
       id="g3975" /><g
       id="g3977" /><g
       id="g3979" /><g
       id="g3981" /><text
       xml:space="preserve"
       style="font-style:normal;font-weight:normal;font-size:30px;line-height:1.25;font-family:sans-serif;letter-spacing:0px;word-spacing:0px;fill:#000000;fill-opacity:1;stroke:none;stroke-width:0.75"
       x="451.72852"
       y="-489.75497"
       id="text3985"
       transform="scale(1,-1)"><tspan
         sodipodi:role="line"
         x="451.72852"
         y="-489.75497"
         style="font-style:italic;font-variant:normal;font-weight:normal;font-stretch:normal;font-size:14px;font-family:sans-serif;-inkscape-font-specification:'sans-serif Italic';stroke-width:0.75"
         id="tspan4005"><tspan
   id="tspan4033"
   style="font-style:normal;font-size:20px;stroke-width:0.75">Basidiomycota </tspan>48870 sps</tspan></text>
<text
       xml:space="preserve"
       style="font-style:normal;font-weight:normal;font-size:30px;line-height:1.25;font-family:sans-serif;letter-spacing:0px;word-spacing:0px;fill:#000000;fill-opacity:1;stroke:none;stroke-width:0.75"
       x="-158.00662"
       y="-380.26489"
       id="text3989"
       transform="scale(1,-1)"><tspan
         sodipodi:role="line"
         x="-158.00662"
         y="-380.26489"
         style="font-style:italic;font-variant:normal;font-weight:normal;font-stretch:normal;font-size:14px;font-family:sans-serif;-inkscape-font-specification:'sans-serif Italic';stroke-width:0.75"
         id="tspan4003"><tspan
   id="tspan4031"
   style="font-style:normal;font-size:22px;stroke-width:0.75">Ascomycota </tspan>84257 sp</tspan></text>
<text
       xml:space="preserve"
       style="font-style:normal;font-weight:normal;font-size:30px;line-height:1.25;font-family:sans-serif;letter-spacing:0px;word-spacing:0px;fill:#000000;fill-opacity:1;stroke:none;stroke-width:0.75"
       x="333.71527"
       y="-613.01324"
       id="text3993"
       transform="scale(1,-1)"><tspan
         sodipodi:role="line"
         id="tspan3991"
         x="333.71527"
         y="-613.01324"
         style="font-size:20px;stroke-width:0.75">Chytridiomycota <tspan
   style="font-size:14.00000035px;-inkscape-font-specification:'sans-serif Italic';font-family:sans-serif;font-weight:normal;font-style:italic;font-stretch:normal;font-variant:normal"
   id="tspan4029">1220 sps</tspan></tspan></text>
<text
       xml:space="preserve"
       style="font-style:normal;font-weight:normal;font-size:30px;line-height:1.25;font-family:sans-serif;letter-spacing:0px;word-spacing:0px;fill:#000000;fill-opacity:1;stroke:none;stroke-width:0.75"
       x="302.24506"
       y="-642.51654"
       id="text3997"
       transform="scale(1,-1)"><tspan
         sodipodi:role="line"
         id="tspan3995"
         x="302.24506"
         y="-642.51654"
         style="font-size:20px;stroke-width:0.75">Glomeromycota <tspan
   style="font-size:14.00000035px;-inkscape-font-specification:'sans-serif Italic';font-family:sans-serif;font-weight:normal;font-style:italic;font-stretch:normal;font-variant:normal"
   id="tspan4027">284 sps</tspan></tspan></text>
<text
       xml:space="preserve"
       style="font-style:normal;font-weight:normal;font-size:30px;line-height:1.25;font-family:sans-serif;letter-spacing:0px;word-spacing:0px;fill:#000000;fill-opacity:1;stroke:none;stroke-width:0.75"
       x="276.67551"
       y="-677.92053"
       id="text4001"
       transform="scale(1,-1)"><tspan
         sodipodi:role="line"
         id="tspan3999"
         x="276.67551"
         y="-677.92053"
         style="font-size:20px;stroke-width:0.75">Zygomycota <tspan
   style="font-size:14.00000035px;-inkscape-font-specification:'sans-serif Italic';font-family:sans-serif;font-weight:normal;font-style:italic;font-stretch:normal;font-variant:normal"
   id="tspan4025">1366 sps</tspan></tspan></text>
<path
       style="fill:none;stroke:#000000;stroke-width:0.75px;stroke-linecap:butt;stroke-linejoin:miter;stroke-opacity:1"
       d="m 285.89,596.37 c 48.48087,21.23267 48.48087,21.23267 48.48087,21.23267"
       id="path4007"
       inkscape:connector-curvature="0" /><path
       style="fill:none;stroke:#000000;stroke-width:0.75px;stroke-linecap:butt;stroke-linejoin:miter;stroke-opacity:1"
       d="m 271.91,597.74 c 28.36815,46.74346 28.36815,46.74346 28.36815,46.74346"
       id="path4009"
       inkscape:connector-curvature="0" /><path
       style="fill:none;stroke:#000000;stroke-width:0.75px;stroke-linecap:butt;stroke-linejoin:miter;stroke-opacity:1"
       d="m 259.16,598.15 c 17.5155,79.77055 17.5155,79.77055 17.5155,79.77055"
       id="path4013"
       inkscape:connector-curvature="0" /><text
       xml:space="preserve"
       style="font-style:normal;font-weight:normal;font-size:30px;line-height:1.25;font-family:sans-serif;letter-spacing:0px;word-spacing:0px;fill:#000000;fill-opacity:1;stroke:none;stroke-width:0.75"
       x="259.60931"
       y="-438.61591"
       id="text4017"
       transform="scale(1,-1)"><tspan
         sodipodi:role="line"
         id="tspan4015"
         x="259.60931"
         y="-438.61591"
         style="text-align:center;text-anchor:middle;stroke-width:0.75;font-size:28.0000007px">The known</tspan><tspan
         sodipodi:role="line"
         x="264.88275"
         y="-401.11591"
         style="text-align:center;text-anchor:middle;stroke-width:0.75;font-size:28.0000007px"
         id="tspan4019">Fungal </tspan><tspan
         sodipodi:role="line"
         x="259.60931"
         y="-363.61591"
         style="text-align:center;text-anchor:middle;stroke-width:0.75;font-size:28.0000007px"
         id="tspan4021">Kingdom</tspan><tspan
         sodipodi:role="line"
         x="259.60931"
         y="-326.11591"
         style="text-align:center;text-anchor:middle;stroke-width:0.75;font-size:16.0000004px;-inkscape-font-specification:'sans-serif Italic';font-family:sans-serif;font-weight:normal;font-style:italic;font-stretch:normal;font-variant:normal"
         id="tspan4023">135997 sps</tspan></text>
</g></svg>